/* XPM */
static char *arrow_xpm[] = {
/* columns rows colors chars-per-pixel */
"21 21 5 1",
"  c Gray0",
". c #d6d6d6",
"X c #b3cece",
"o c Gray100",
"O c None",
/* pixels */
"OOOOOOOOOOOOOOOOOOOOO",
"OOOOOOOOOOOOOOOOOOOOO",
"OOOOOOOOOOOOOOOOOOOOO",
"OOOOOOOOOOOOOOOOOOOOO",
"OOOooOOOOOOOOOOOOOOOO",
"OOOo.ooOOOOOOOOOOOOOO",
"OOOo...ooOOOOOOOOOOOO",
"OOOo.....ooOOOOOOOOOO",
"OOOo.......ooOOOOOOOO",
"OOOo.........ooOOOOOO",
"OOOo...........  OOOO",
"OOOo.........  OOOOOO",
"OOOo.......  OOOOOOOO",
"OOOo.....  OOOOOOOOOO",
"OOOo...  OOOOOOOOOOOO",
"OOOo.  OOOOOOOOOOOOOO",
"OOOo OOOOOOOOOOOOOOOO",
"OOOOOOOOOOOOOOOOOOOOO",
"OOOOOOOOOOOOOOOOOOOOO",
"OOOOOOOOOOOOOOOOOOOOO",
"OOOOOOOOOOOOOOOOOOOOO"
};
