/* XPM */
static char * calendar_xpm[] = {
"21 21 5 1",
" 	c None",
".	c #000000",
"+	c #DEDEDE",
"@	c #FFFFFF",
"#	c #DFDFDF",
"                     ",
".....................",
".+++++++++++++++++++.",
".+..+..+..+..+..+..+.",
".+++++++++++++++++++.",
".....................",
".@@@@@@@@@@@@@@@@@@@.",
".@@+@@.@@.@@.@@.@@.@.",
".@@@@@@@@@@@@@@@@@@@.",
".@@.@@.@@.@@.@@.@@.@.",
".@@@@@@@@@@@@@@@@@@@.",
".@@.@@.@@.@@.@@.@@.@.",
".@@@@@@@@@@@@@@@@@@@.",
".@@.@@.@@.@@.@@.@@.@.",
".@@@@@@@@@@@@@@@@@@@.",
".@@.@@.@@.@@+@@+@@+@.",
".@@@@@@@@@@@@@@@@@@@.",
".@@+@@+@@+@@+@@+@@#@.",
".@@@@@@@@@@@@@@@@@@@.",
".....................",
"                     "};
