/* XPM */
static char * checkmenuitem_xpm[] = {
"21 21 4 1",
" 	c None",
".	c #FFFFFF",
"+	c #7B7B7B",
"@	c #000000",
"                     ",
"                     ",
"                     ",
"                     ",
"                     ",
"                     ",
"                     ",
"  ........           ",
"  .     +@           ",
"  .     +@           ",
"  .     +@           ",
"  .     +@       @   ",
"  . +++++@     @@    ",
"  .@@@@@@@   @@@@    ",
"           @@@@@     ",
"            @@@@     ",
"            @@@      ",
"           @  @      ",
"          @          ",
"         @           ",
"                     "};
