/* XPM */
static char * clist_xpm[] = {
"21 21 4 1",
" 	c None",
".	c #000000",
"+	c #DEDEDE",
"@	c #FFFFFF",
".....................",
".++++++.++++++.+++++.",
".++++++.++++++.+++++.",
".++++++.++++++.+++++.",
".....................",
".@@@@@@.@@@@@@.@@@@@.",
".@@@@@@.@@@@@@.@@@@@.",
".@@@@@@.@@@@@@.@@@@@.",
".....................",
".@@@@@@.@@@@@@.@@@@@.",
".@@@@@@.@@@@@@.@@@@@.",
".@@@@@@.@@@@@@.@@@@@.",
".....................",
".@@@@@@.@@@@@@.@@@@@.",
".@@@@@@.@@@@@@.@@@@@.",
".@@@@@@.@@@@@@.@@@@@.",
".....................",
".@@@@@@.@@@@@@.@@@@@.",
".@@@@@@.@@@@@@.@@@@@.",
".@@@@@@.@@@@@@.@@@@@.",
"....................."};
