/* XPM */
static char * custom_bg_xpm[] = {
"8 8 4 1",
" 	c None",
".	c #BBBBBB",
"+	c #D6D6D6",
"@	c #6B5EFF",
".+..+...",
"+..@@@..",
"..@...++",
"..@...++",
"+.@..+..",
".++@@@..",
"..++....",
"..++...."};
