/* XPM */
static char * custom_xpm[] = {
"21 21 6 1",
" 	c None",
".	c #FFFFFF",
"+	c #000000",
"@	c #D6D6D6",
"#	c #7B7B7B",
"$	c #0000FF",
"                     ",
"                     ",
"  ................+  ",
"  .@@@@@@@@@@@@@@#+  ",
"  .@@@@@@@@@@@@@@#+  ",
"  .@@@@@$$$$@@@@@#+  ",
"  .@@@@$$$$$$@@@@#+  ",
"  .@@@$$$@@@$$@@@#+  ",
"  .@@@$$@@@@@$@@@#+  ",
"  .@@@$$@@@@@@@@@#+  ",
"  .@@@$$@@@@@@@@@#+  ",
"  .@@@$$@@@@@$@@@#+  ",
"  .@@@$$$@@@$$@@@#+  ",
"  .@@@@$$$$$$@@@@#+  ",
"  .@@@@@$$$$@@@@@#+  ",
"  .@@@@@@@@@@@@@@#+  ",
"  .@@@@@@@@@@@@@@#+  ",
"  .###############+  ",
"  +++++++++++++++++  ",
"                     ",
"                     "};
