/* XPM */
static char *eventbox_xpm[] = {
/* columns rows colors chars-per-pixel */
"21 21 7 1",
"  c Gray0",
". c #7b7b7b",
"X c Blue",
"o c #d6d6d6",
"O c #b3cece",
"+ c Gray100",
"@ c None",
/* pixels */
"@@@@@@@@@@X+@@@@@@@@@",
"@@@@@@@@@XX+@@@@@@@@@",
"@@@@@@@@XX+@@@@@@@@@@",
"@@@@@@@XX+@@@@@@@@@@@",
"@@@@@@@@XX+@@@@@@@@@@",
"@@@@@@@@@XX+@@@@@@@@@",
"@@@@@@@@@@XX+@@@@@@@@",
"@@@++++++XX++++++ @@@",
"@@@+ooooXX+ooooo. @@@",
"@@@+oooXX+oooooo. @@@",
"@@@+ooooXX+ooooo. @@@",
"@@@+oooooXX+oooo. @@@",
"@@@+ooooooXX+ooo. @@@",
"@@@+oooooooooooo. @@@",
"@@@+oooooooooooo. @@@",
"@@@+oooooooooooo. @@@",
"@@@+............. @@@",
"@@@               @@@",
"@@@@@@@@@@@@@@@@@@@@@",
"@@@@@@@@@@@@@@@@@@@@@",
"@@@@@@@@@@@@@@@@@@@@@"
};
