/* XPM */
static char * filechooserwidget_xpm[] = {
"21 21 5 1",
" 	c None",
".	c #7B7B7B",
"+	c #FFFFFF",
"@	c #000000",
"#	c #FFFF00",
"                     ",
"                     ",
"                     ",
"                     ",
"                     ",
"  ................   ",
"  .++++++++++++++.@  ",
"  .++++++++++++++.@  ",
"  .+++++@@+++++++.@  ",
"  .++++@##@@@++++.@  ",
"  .++++@#####@+++.@  ",
"  .++++@#####@+++.@  ",
"  .++++@#####@+++.@  ",
"  .++++@@@@@@@+++.@  ",
"  .++++++++++++++.@  ",
"  .++++++++++++++.@  ",
"  ................@  ",
"   @@@@@@@@@@@@@@@@  ",
"                     ",
"                     ",
"                     "};
