/* XPM */
static char * fileseldialog_xpm[] = {
"21 21 10 1",
" 	c None",
".	c #7B7B7B",
"+	c #00007B",
"@	c #FF0000",
"#	c #FFFF00",
"$	c #000000",
"%	c #00FFFF",
"&	c #00FF00",
"*	c #FFFFFF",
"=	c #D6D6D6",
"                     ",
"                     ",
"                     ",
"                     ",
"  ................   ",
"  .+@#+++++++++++.$  ",
"  .+%&+***++++=$=.$  ",
"  ................$  ",
"  .**************.$  ",
"  .*****$$*******.$  ",
"  .****$##$$$****.$  ",
"  .****$#####$***.$  ",
"  .****$#####$***.$  ",
"  .****$#####$***.$  ",
"  .****$$$$$$$***.$  ",
"  .**************.$  ",
"  ................$  ",
"   $$$$$$$$$$$$$$$$  ",
"                     ",
"                     ",
"                     "};
