/* XPM */
static char *fontseldialog_xpm[] = {
/* columns rows colors chars-per-pixel */
"21 21 13 1",
"  c Gray0",
". c #00007b",
"X c #7b7b7b",
"o c Green",
"O c Cyan",
"+ c Red",
"@ c Yellow",
"# c Gray61",
"$ c #d6d6d6",
"% c #b3cece",
"& c Gray87",
"* c Gray100",
"= c None",
/* pixels */
"=====================",
"=====================",
"=====================",
"=====================",
"==XXXXXXXXXXXXXXXX===",
"==X.+@...........X ==",
"==X.Oo.***....$ $X ==",
"==XXXXXXXXXXXXXXXX ==",
"==X**************X ==",
"==X*******#  $***X ==",
"==X******&  *#***X ==",
"==X*****   ******X ==",
"==X******   *****X ==",
"==X*** &  *******X ==",
"==X***$  #*******X ==",
"==X**************X ==",
"==XXXXXXXXXXXXXXXX ==",
"===                ==",
"=====================",
"=====================",
"====================="
};
