/* XPM */
static char *fontsel_xpm[] = {
/* columns rows colors chars-per-pixel */
"21 21 8 1",
"  c Gray0",
". c #7b7b7b",
"X c Gray61",
"o c #d6d6d6",
"O c #b3cece",
"+ c Gray87",
"@ c Gray100",
"# c None",
/* pixels */
"#####################",
"#####################",
"#####################",
"#####################",
"#####################",
"##................###",
"##.@@@@@@@@@@@@@@. ##",
"##.@@@@@@@@@@@@@@. ##",
"##.@@@@@@@X  o@@@. ##",
"##.@@@@@@+  @X@@@. ##",
"##.@@@@@   @@@@@@. ##",
"##.@@@@@@   @@@@@. ##",
"##.@@@ +  @@@@@@@. ##",
"##.@@@o  X@@@@@@@. ##",
"##.@@@@@@@@@@@@@@. ##",
"##.@@@@@@@@@@@@@@. ##",
"##................ ##",
"###                ##",
"#####################",
"#####################",
"#####################"
};
