/* XPM */
static char * glade_atk_xpm[] = {
"20 20 89 1",
" 	c None",
".	c #AEAFAE",
"+	c #FFFFFF",
"@	c #C4C4F1",
"#	c #4646D3",
"$	c #8484E2",
"%	c #3535D0",
"&	c #0000C4",
"*	c #D5D5F5",
"=	c #6363DB",
"-	c #1515C9",
";	c #EEEEFB",
">	c #F7F7FD",
",	c #6969DC",
"'	c #B7B7EE",
")	c #7A7AE0",
"!	c #0606C5",
"~	c #DDDDF7",
"{	c #5656D8",
"]	c #B2B2ED",
"^	c #6464DB",
"/	c #6868DC",
"(	c #9F9FE9",
"_	c #BCBCEF",
":	c #7373DE",
"<	c #2929CD",
"[	c #EFEFFB",
"}	c #2121CC",
"|	c #8282E2",
"1	c #E7E7FA",
"2	c #E7E7F9",
"3	c #E6E6F9",
"4	c #F0F0FB",
"5	c #7474DF",
"6	c #FBFBFE",
"7	c #9090E5",
"8	c #CACAF3",
"9	c #FEFEFF",
"0	c #1616C9",
"a	c #ACACEC",
"b	c #D0D0F4",
"c	c #0808C6",
"d	c #3636D0",
"e	c #FDFDFF",
"f	c #E9E9FA",
"g	c #E4E4F8",
"h	c #E5E5F9",
"i	c #C1C1F1",
"j	c #4A4AD5",
"k	c #9B9BE8",
"l	c #EAEAFA",
"m	c #E2E2F8",
"n	c #0909C6",
"o	c #CECEF4",
"p	c #F3F3FC",
"q	c #1A1ACA",
"r	c #A7A7EB",
"s	c #F5F5FD",
"t	c #5656D7",
"u	c #8181E2",
"v	c #2424CC",
"w	c #0101C4",
"x	c #A6A6EA",
"y	c #2E2ECF",
"z	c #F8F8FD",
"A	c #2323CC",
"B	c #F4F4FC",
"C	c #2222CC",
"D	c #1919CA",
"E	c #A6A6EB",
"F	c #F2F2FC",
"G	c #2727CD",
"H	c #4E4ED6",
"I	c #9696E7",
"J	c #0707C6",
"K	c #E3E3F9",
"L	c #3737D1",
"M	c #1313C8",
"N	c #8F8FE5",
"O	c #7D7DE1",
"P	c #3030CF",
"Q	c #1010C8",
"R	c #AFAFEC",
"S	c #FCFCFE",
"T	c #5E5EDA",
"U	c #4040D3",
"V	c #4F4FD6",
"W	c #8B8BE4",
"X	c #ECECFA",
"....................",
".+++++@#$++++++++++.",
".+++++%&&*+++++++++.",
".+++++=&-;+++++++++.",
".+++++>,'++++++++++.",
".+++++)&!~+++++++++.",
".+++++{&&]+++++++++.",
".+++++^&&/((_++++++.",
".+++~,:&&&&&<++++++.",
".++[}/|&&)1234+++++.",
".++5%67&&&&&&!8++++.",
".+90a+bc&&&&&&de+++.",
".+f&g++hiiiiij&k+++.",
".+l&m++++++++*n-;op.",
".+9qr+++++++stu&vwx.",
".++)yz++++++uABCDE+.",
".++FGH[+++9IJ_+b4++.",
".+++KLM,NOPQR++++++.",
".++++SaTUVWX+++++++.",
"...................."};
