/* XPM */
static char * gnome_href_xpm[] = {
"21 21 8 1",
" 	c None",
".	c #FFFFFF",
"+	c #000000",
"@	c #D6D6D6",
"#	c #7B7B7B",
"$	c #DEB6A4",
"%	c #ACC29C",
"&	c #626D52",
"                     ",
"                     ",
"                     ",
" ..................+ ",
" .@@@@@@@@@@@@@@@@#+ ",
" .@@@@@@@@@++@@@@@#+ ",
" .@@@@@@@@+$$+@@@@#+ ",
" .@@@@@@@+$.$$+@@@#+ ",
" .@@@@+++++$$$+@@@#+ ",
" .@@@@@+..+$$+@@@@#+ ",
" .@@@++.%&+++@@@@@#+ ",
" .@++.%%&++@@@@@@@#+ ",
" .@@+%%%+@+@@@@@@@#+ ",
" .@@@+%&+@@@@@@@@@#+ ",
" .@@@@++@@@@@@@@@@#+ ",
" .@@@@@+@@@@@@@@@@#+ ",
" .#################+ ",
" +++++++++++++++++++ ",
"                     ",
"                     ",
"                     "};
