/* XPM */
static char * gnome_dock_item_xpm[] = {
"21 21 5 1",
" 	c None",
".	c #FFFFFF",
"+	c #7B7B7B",
"@	c #D6D6D6",
"#	c #000000",
".....................",
".+@+@@@@@@@@@@@@@@@@#",
".@.+@@@@@@@@@@@@@@@@#",
".+@+@@@@@@@@@@@@@@@@#",
".####################",
".....................",
".@@@@@@@@@@@@@@@@@@@+",
".@@@@@@@@@@@@@@@@@@@+",
".@@@@@@@@@@@@@@@@@@@+",
".@@@@@@@@@@@@@@@@@@@+",
".@@@@@@@@@@@@@@@@@@@+",
".@@@@@@@@@@@@@@@@@@@+",
".@@@@@@@@@@@@@@@@@@@+",
".@@@@@@@@@@@@@@@@@@@+",
".@@@@@@@@@@@@@@@@@@@+",
".@@@@@@@@@@@@@@@@@@@+",
".@@@@@@@@@@@@@@@@@@@+",
".@@@@@@@@@@@@@@@@@@@+",
".@@@@@@@@@@@@@@@@@@@+",
".@@@@@@@@@@@@@@@@@@@+",
".++++++++++++++++++++"};
