/* XPM */
static char * gnome_animator_xpm[] = {
"21 21 8 1",
" 	c None",
".	c #898989",
"+	c #C4C4C4",
"@	c #FFFF74",
"#	c #FFFFFF",
"$	c #FFFFBF",
"%	c #000000",
"&	c #FFFF00",
"                     ",
"                     ",
"                     ",
"                     ",
"        .+           ",
"       +@@.++        ",
"    ++#.$$@@..       ",
"   +$$++@@$.@@...    ",
"   +$@$.@$@.@@@@@.   ",
" +++$$$+.++.@@@%%.   ",
"+$$+@$@$@+ .@@%&&%%% ",
"+$$+++++++ ...%&&&&&%",
"+$$$$$+       %&&&&&%",
"+$$$$$+       %&&&&&%",
"+++++++       %%%%%%%",
"                     ",
"                     ",
"                     ",
"                     ",
"                     ",
"                     "};
