/* XPM */
static char * gnome_control_xpm[] = {
"21 21 6 1",
" 	c None",
".	c #FFFFFF",
"+	c #D6D6D6",
"@	c #7B7B7B",
"#	c #A1A6C9",
"$	c #000000",
"        .....        ",
" ........+++@....... ",
" #######.+++@####### ",
" @@@@@@@.+++@@@@@@@@ ",
"        @@@@@        ",
"         .#@         ",
"         .#@         ",
"   ..............$   ",
"   .++++++++++++@$   ",
"   .++++++++++++@$   ",
"   .++++++++++++@$   ",
"   .++++++++++++@$   ",
"   .++++++++++++@$   ",
"   .++++++++++++@$   ",
"   .++++++++++++@$   ",
"   .++++++++++++@$   ",
"   .@@@@@@@@@@@@@$   ",
"   $$$$$$$$$$$$$$$   ",
"                     ",
"                     ",
"                     "};
