/* XPM */
static char * gnome_db_error_xpm[] = {
"21 21 6 1",
" 	c None",
".	c #B5B5B5",
"+	c #FFFFFF",
"@	c #7B7B7B",
"#	c #000000",
"$	c #FF0000",
"............         ",
".++.++.++.+.         ",
"............         ",
".++.+++++++.         ",
"..+.+..+.++.         ",
".++.+++++++.         ",
"..+.+.+.+.+.         ",
".++.+++++++.         ",
"..+.@@@@@@@@@@@@@@@@ ",
".++.@++++++++++++++@#",
"....@++++++$$++++++@#",
"    @++++++$$++++++@#",
"    @++++++$$++++++@#",
"    @++++++$$++++++@#",
"    @++++++++++++++@#",
"    @++++++$$++++++@#",
"    @++++++++++++++@#",
"    @@@@@@@@@@@@@@@@#",
"     ################",
"                     ",
"                     "};
