/* XPM */
static char * gnome_fileentry_xpm[] = {
"21 21 7 1",
" 	c None",
".	c #000000",
"+	c #FFFFFF",
"@	c #DEDEDE",
"#	c #7B7B7B",
"$	c #D6D6D6",
"%	c #FFFF00",
"                     ",
"                     ",
"                     ",
"                     ",
"                     ",
"                     ",
"                     ",
"                     ",
"............... ++++.",
".+++++++++.@@@. +##$.",
".+++++++++..@.. +$$$.",
"............... .....",
"                     ",
"        ..           ",
"       .%%...        ",
"       .%%%%%.       ",
"       .%%%%%.       ",
"       .%%%%%.       ",
"       .......       ",
"                     ",
"                     "};
