/* XPM */
static char * gnome_calculator_xpm[] = {
"21 21 5 1",
" 	c None",
".	c #000000",
"+	c #FFFFFF",
"@	c #D6D6D6",
"#	c #7B7B7B",
"                     ",
"                     ",
"                     ",
"     ............    ",
"     ........++..    ",
"     ........++..    ",
"     ............    ",
"     .@@@@@@@@@@.    ",
"     .@@@@@@@@@@.    ",
"     .@+#+#+#+#@.    ",
"     .@########@.    ",
"     .@+#+#+#+#@.    ",
"     .@########@.    ",
"     .@+#+#+#+#@.    ",
"     .@########@.    ",
"     .@+#+#+#+#@.    ",
"     .@########@.    ",
"     .@@@@@@@@@@.    ",
"     ............    ",
"                     ",
"                     "};
