/* XPM */
static char * gnome_db_dsn_druid_xpm[] = {
"21 21 8 1",
" 	c None",
".	c #B5B5B5",
"+	c #FFFFFF",
"@	c #7B7B7B",
"#	c #07077B",
"$	c #000000",
"%	c #00007B",
"&	c #D6D6D6",
"............         ",
".++.++.++.+.         ",
"............         ",
".++.+++++++.         ",
"@@@@@@@@@@@@@@@@@@@@ ",
"@##################@$",
"@#+++#++########++#@$",
"@###############++#@$",
"@%%%%%%%%%%%%%%%###@$",
"@$$$$++++++++++++++@$",
"@$@&$++++++++++++++@$",
"@$&@$+++$++$++$++++@$",
"@$@&$+++++$+$++$+++@$",
"@$&@$+++$+++++$$+++@$",
"@$&&$++++++++++++++@$",
"@$$$$++++++++++++++@$",
"@&+++@@@+@@@+++@@@+@$",
"@&++++&&&+&&&+++&&&@$",
"@@@@@@@@@@@@@@@@@@@@$",
" $$$$$$$$$$$$$$$$$$$$",
"                     "};
