/* XPM */
static char * gnome_dateedit_xpm[] = {
"21 21 5 1",
" 	c None",
".	c #000000",
"+	c #FFFFFF",
"@	c #DEDEDE",
"#	c #FF0000",
"                     ",
"                     ",
"                     ",
"                     ",
"                     ",
"                     ",
"                     ",
"                     ",
".....................",
".+++++++++++++++.@@@.",
".+++++++++++++++..@..",
".....................",
"                     ",
"       #######       ",
"       #+++++#       ",
"       #++.++#       ",
"       #+..++#       ",
"       #++.++#       ",
"       #+...+#       ",
"       #+++++#       ",
"       #######       "};
