/* XPM */
static char * gnome_iconselection_xpm[] = {
"21 21 8 1",
" 	c None",
".	c #7B797B",
"+	c #FFFFFF",
"@	c #000000",
"#	c #D6D6D6",
"$	c #FFFF00",
"%	c #00FF00",
"&	c #FF0000",
"....................+",
".@@@@@@@@@@@@@@@@@@#+",
".@+++++++++++++++++#+",
".@+++++++++++++++++#+",
".@++++++@@+++++++++#+",
".@+++++@$$@@@++++++#+",
".@+++++@$$$$$@+++++#+",
".@+++++@$$$$$@+++++#+",
".@+++++@$$$$$@+++++#+",
".@+++++@@@@@@@+++++#+",
".@+++++++++++++++++#+",
".@+++++++++++++++++#+",
".@+++%&%+++++%&%+++#+",
".@+++&%&+++++&&&+++#+",
".@+++%&%+++++%&%+++#+",
".@+++++++++++++++++#+",
".@++@+@+@+++@+@@+++#+",
".@+++++++++++++++++#+",
".@+++++++++++++++++#+",
".###################+",
"+++++++++++++++++++++"};
