/* XPM */
static char * gnome_db_login_dlg_xpm[] = {
"21 21 11 1",
" 	c None",
".	c #B5B5B5",
"+	c #FFFFFF",
"@	c #7B7B7B",
"#	c #00007B",
"$	c #FF0000",
"%	c #FFFF00",
"&	c #000000",
"*	c #00FFFF",
"=	c #00FF00",
"-	c #D6D6D6",
"............         ",
".++.++.++.+.         ",
"............         ",
".++.+++++++.         ",
"..+.+..+.++.         ",
".++.+++++++.         ",
"..+.+.+.+.+.         ",
".++.@@@@@@@@@@@@@@@@ ",
"..+.@#$%############&",
".++.@#*=#+++####-&-&&",
"....@@@@@@@@@@@@@@@@&",
"    @++++++++++++++@&",
"    @+++++&&&&&++++@&",
"    @++++&&&&&&++++@&",
"    @++++&&&&&&++++@&",
"    @++++&&&&&&&+++@&",
"    @+++++&&&&&++++@&",
"    @++++++&&&&++++@&",
"    @++++++++++++++@&",
"    @@@@@@@@@@@@@@@@&",
"     &&&&&&&&&&&&&&&&"};
