/* XPM */
static char * gnome_db_connection_properties_xpm[] = {
"21 21 70 1",
" 	c None",
".	c #B5B5B5",
"+	c #FFFFFF",
"@	c #7B7B7B",
"#	c #000000",
"$	c #F6F6F6",
"%	c #B8B8B8",
"&	c #5E5E5C",
"*	c #393836",
"=	c #C9C9C9",
"-	c #838282",
";	c #33322F",
">	c #ACACAB",
",	c #73716B",
"'	c #9F9D99",
")	c #84817A",
"!	c #2B2B2B",
"~	c #555555",
"{	c #A8A8A8",
"]	c #575755",
"^	c #A3A098",
"/	c #AAAAAA",
"(	c #A4A4A4",
"_	c #666663",
":	c #EBEAE6",
"<	c #C2BFB9",
"[	c #8A8881",
"}	c #424643",
"|	c #89918B",
"1	c #636463",
"2	c #5C5B5A",
"3	c #AAA7A1",
"4	c #9C9B97",
"5	c #CBC9C4",
"6	c #EDEBE8",
"7	c #B5B2AB",
"8	c #8B8982",
"9	c #D3D3D3",
"0	c #5B5B5A",
"a	c #AAA7A0",
"b	c #55534D",
"c	c #53514A",
"d	c #807E75",
"e	c #AEABA4",
"f	c #9E9A92",
"g	c #827F78",
"h	c #50504F",
"i	c #99978F",
"j	c #9A9A9A",
"k	c #53524D",
"l	c #9C9991",
"m	c #949087",
"n	c #7E7C74",
"o	c #8A928C",
"p	c #656665",
"q	c #494947",
"r	c #8F8C84",
"s	c #AAA9A9",
"t	c #5B5954",
"u	c #716E66",
"v	c #6C6860",
"w	c #444341",
"x	c #87847B",
"y	c #F4F4F4",
"z	c #B7B7B7",
"A	c #706F6D",
"B	c #3B3A36",
"C	c #C4C4C4",
"D	c #81807F",
"E	c #302F2B",
"............         ",
".++.++.++.+.         ",
"............         ",
".++.+++++++.         ",
"..+.+..+.++.         ",
".+@@@@@@@@@@@@@@@@@@ ",
"..@++++++++++++++++@#",
".+@++++++++++++++++@#",
"..@++++++++++++++++@#",
".+@++++++++++++++++@#",
"..@++++$%&*=+++++-;@#",
"  @++++>,')!~{+++]^@#",
"  @+//(_:<[}|1+++23@#",
"  @+4445678~/9+++0a@#",
"  @+bbcdefg~/9+++hi@#",
"  @+//jklmn}op+++qr@#",
"  @++++stuv!~{+++wx@#",
"  @++++yzABC+++++DE@#",
"  @++++++++++++++++@#",
"  @@@@@@@@@@@@@@@@@@#",
"  ###################"};
