/* XPM */
static char * gnome_canvas_xpm[] = {
"21 21 7 1",
" 	c None",
".	c #7B797B",
"+	c #FFFFFF",
"@	c #000000",
"#	c #D6D6D6",
"$	c #7B7B7B",
"%	c #FFFF00",
"....................+",
".@@@@@@@@@@@@@@@@@@#+",
".@+++++++++++++++++#+",
".@+++++++++++++++++#+",
".@+++++++@+++@@@+++#+",
".@++####$@++@%%%@++#+",
".@++####$@+@%%%%%@+#+",
".@++####$@+@%%%%%@+#+",
".@++$$$$$@++@%%%@++#+",
".@+@@@@@@@+++@@@+++#+",
".@+++++++++++++++++#+",
".@+++++++@+++++++++#+",
".@+++++++@+++++++++#+",
".@+++@@@+@@@+++@@++#+",
".@++@++@+@++@+@++++#+",
".@++@++@+@++@+@++++#+",
".@+++@@@+@@@+++@@++#+",
".@+++++++++++++++++#+",
".@+++++++++++++++++#+",
".###################+",
"+++++++++++++++++++++"};
