/* XPM */
static char * gnome_papersel_xpm[] = {
"21 21 4 1",
" 	c None",
".	c #000000",
"+	c #D6D6D6",
"@	c #FFFFFF",
"...............  +.+ ",
".@@@@@@@@@@@@@.  ... ",
".@@@@@@@@@@@@@.   .  ",
".@@@@@@@@@@@@@.   .  ",
".@@@@@@@@@@@@@.   .  ",
".@@@..@@@@.@@@.   .  ",
".@@.@@.@@..@@@.   .  ",
".@@.@@.@.@.@@@.   .  ",
".@@....@....@@.   .  ",
".@@.@@.@@@.@@@.   .  ",
".@@.@@.@@@.@@@.   .  ",
".@@@@@@@@@@@@@.   .  ",
".@@@@@@@@@@@@@.   .  ",
".@@@@@@@@@@@@@.   .  ",
".@@@@@@@@@@@@@.   .  ",
".@@@@@@@@@@@@@.  ... ",
"...............  +.+ ",
"                     ",
"+.          .+       ",
"..............       ",
"+.          .+       "};
