/* XPM */
static char * gnome_druid_page_start_xpm[] = {
"21 21 5 1",
" 	c None",
".	c #7B7B7B",
"+	c #00007B",
"@	c #000000",
"#	c #FFFFFF",
"                     ",
"                     ",
"                     ",
".................... ",
".++++++++++++++++++.@",
".+###+##++++++++##+.@",
".+++++++++++++++##+.@",
".++++++++++++++++++.@",
".++++##############.@",
".++#+##############.@",
".++++##############.@",
".+#++##############.@",
".++++##############.@",
".++++##############.@",
".++#+##############.@",
".++++##############.@",
".++++##############.@",
"....................@",
" @@@@@@@@@@@@@@@@@@@@",
"                     ",
"                     "};
