/* XPM */
static char * gnome_druid_page_standard_xpm[] = {
"21 21 7 1",
" 	c None",
".	c #7B7B7B",
"+	c #07077B",
"@	c #000000",
"#	c #FFFFFF",
"$	c #00007B",
"%	c #D6D6D6",
"                     ",
"                     ",
"                     ",
".................... ",
".++++++++++++++++++.@",
".+###+##++++++++##+.@",
".+++++++++++++++##+.@",
".$$$$$$$$$$$$$$$+++.@",
".+%%%%%%%%%%%%%%%%%.@",
".+%%%%%%%%%%%%%%%%%.@",
".+%%%%%%%%%%%%%%%%%.@",
".+%%%%%%%%%%%%%%%%%.@",
".+%%%%%%%%%%%%%%%%%.@",
".+%%%%%%%%%%%%%%%%%.@",
".+%%%%%%%%%%%%%%%%%.@",
".+%%%%%%%%%%%%%%%%%.@",
".+%%%%%%%%%%%%%%%%%.@",
"....................@",
" @@@@@@@@@@@@@@@@@@@@",
"                     ",
"                     "};
