/* XPM */
static char * gnome_db_editor_xpm[] = {
"21 21 8 1",
" 	c None",
".	c #B5B5B5",
"+	c #FFFFFF",
"@	c #7B7B7B",
"#	c #000000",
"$	c #E8BA04",
"%	c #F92011",
"&	c #2BC60B",
"............         ",
".++.++.++.+.         ",
"............         ",
".++.+++++++.         ",
"..+.+..+.++.         ",
".+@@@@@@@@@@@@@@@@@@ ",
"..@++++++++++++++++@#",
".+@+$$+$+$$++++++++@#",
"..@++++++++++++++++@#",
".+@++++%%%%+%%%++++@#",
"..@++++++++++++++++@#",
"  @++++++&+&&&&&+++@#",
"  @++++++++++++++++@#",
"  @++++%%%%+%++++++@#",
"  @++++++++++++++++@#",
"  @++++%%++%++%%%%+@#",
"  @++++++++++++++++@#",
"  @+$+$$+$$$$++++++@#",
"  @++++++++++++++++@#",
"  @@@@@@@@@@@@@@@@@@#",
"  ###################"};
