/* XPM */
static char * gnome_pixmapentry_xpm[] = {
"21 21 9 1",
" 	c None",
".	c #000000",
"+	c #FFFFFF",
"@	c #DEDEDE",
"#	c #7B7B7B",
"$	c #D6D6D6",
"%	c #00FFFF",
"&	c #FFFF00",
"*	c #00FF00",
"                     ",
"                     ",
"                     ",
"                     ",
"                     ",
"                     ",
"                     ",
"                     ",
"............... ++++.",
".+++++++++.@@@. +##$.",
".+++++++++..@.. +$$$.",
"............... .....",
"                     ",
"       .......       ",
"       .%%%%&.       ",
"       .%%.%%.       ",
"       .**.**.       ",
"       .*****.       ",
"       .......       ",
"                     ",
"                     "};
