/* XPM */
static char * gnome_db_provider_sel_xpm[] = {
"21 21 6 1",
" 	c None",
".	c #B5B5B5",
"+	c #FFFFFF",
"@	c #000000",
"#	c #D6D6D6",
"$	c #7B7B7B",
"............         ",
".++.++.++.+.         ",
"............         ",
".++.+++++++.         ",
"..+.+..+.++.         ",
".++.+++++++.         ",
"..+.+.+.+.+.         ",
"++++++++++++++++++++@",
"+##################$@",
"+##################$@",
"+##################$@",
"+############++++##$@",
"+############+##@##$@",
"+############+@@@##$@",
"+##################$@",
"+##################$@",
"+##################$@",
"+$$$$$$$$$$$$$$$$$$$@",
"@@@@@@@@@@@@@@@@@@@@@",
"                     ",
"                     "};
