/* XPM */
static char * gnome_db_query_builder_xpm[] = {
"21 21 36 1",
" 	c None",
".	c #B5B5B5",
"+	c #FFFFFF",
"@	c #7B7B7B",
"#	c #000000",
"$	c #DDDDDD",
"%	c #474747",
"&	c #090909",
"*	c #0A0A0A",
"=	c #4E4E4E",
"-	c #E3E3E3",
";	c #363636",
">	c #6B6B6B",
",	c #E5E5E5",
"'	c #DEDEDE",
")	c #565656",
"!	c #404040",
"~	c #EDEDED",
"{	c #F3F3F3",
"]	c #D9D9D9",
"^	c #040404",
"/	c #FAFAFA",
"(	c #D7D7D7",
"_	c #8B8B8B",
":	c #373737",
"<	c #FDFDFD",
"[	c #808080",
"}	c #252525",
"|	c #666666",
"1	c #414141",
"2	c #EEEEEE",
"3	c #020202",
"4	c #ABABAB",
"5	c #F5F5F5",
"6	c #9B9B9B",
"7	c #F4F4F4",
"............         ",
".++.++.++.+.         ",
"............         ",
".++.+++++++.         ",
"..+.+..+.++.         ",
".+@@@@@@@@@@@@@@@@@@ ",
"..@++++++++++++++++@#",
".+@++++++++++++++++@#",
"..@+++++$%&*=-+++++@#",
".+@+++++;>,')!+++++@#",
"..@++++~#{++]^+++++@#",
"  @++++/(+++_:+++++@#",
"  @+++++++<[}$+++++@#",
"  @+++++++|12++++++@#",
"  @+++++++3]+++++++@#",
"  @+++++++45+++++++@#",
"  @+++++++67+++++++@#",
"  @+++++++#-+++++++@#",
"  @++++++++++++++++@#",
"  @@@@@@@@@@@@@@@@@@#",
"  ###################"};
