/* XPM */
static char * gnome_iconlist_xpm[] = {
"21 21 9 1",
" 	c None",
".	c #7B797B",
"+	c #FFFFFF",
"@	c #000000",
"#	c #D6D6D6",
"$	c #00007B",
"%	c #00FFFF",
"&	c #00FF00",
"*	c #FF0000",
"....................+",
".@@@@@@@@@@@@@@@@@@#+",
".@+++++++++++++++++#+",
".@+++++++++++++++++#+",
".@+++$%$+++++&%&+++#+",
".@+++%$%+++++%&%+++#+",
".@+++$%$+++++&%&+++#+",
".@+++++++++++++++++#+",
".@++@+@@+@++@@@+@++#+",
".@+++++++++++++++++#+",
".@+++++++++++++++++#+",
".@+++++++++++++++++#+",
".@+++&*&+++++&*&+++#+",
".@+++*&*+++++***+++#+",
".@+++&*&+++++&*&+++#+",
".@+++++++++++++++++#+",
".@++@+@+@+++@+@@+++#+",
".@+++++++++++++++++#+",
".@+++++++++++++++++#+",
".###################+",
"+++++++++++++++++++++"};
