/* XPM */
static char * gnome_numberentry_xpm[] = {
"21 21 6 1",
" 	c None",
".	c #000000",
"+	c #FFFFFF",
"@	c #DEDEDE",
"#	c #7B7B7B",
"$	c #D6D6D6",
"                     ",
"                     ",
"                     ",
"                     ",
"                     ",
"                     ",
"                     ",
"                     ",
"............... ++++.",
".+++++++++.@@@. +##$.",
".+++++++++..@.. +$$$.",
"............... .....",
"                     ",
"                     ",
"      .  ..@ ..@     ",
"     ..   @.  @.     ",
"      .  @.@ ..@     ",
"      .  .@   @.     ",
"     ... ... ..@     ",
"                     ",
"                     "};
