/* XPM */
static char * gnome_fontpicker_xpm[] = {
"21 21 7 1",
" 	c None",
".	c #FFFFFF",
"+	c #000000",
"@	c #D6D6D6",
"#	c #7B7B7B",
"$	c #FFFF9C",
"%	c #FF0000",
"                     ",
"                     ",
"                     ",
" ..................+ ",
" .@@@@@@@@@@@@@@@@#+ ",
" .@@@@@@$$$$$@@@@@#+ ",
" .@@@@@@%%%%$@@@@@#+ ",
" .@@@@@%$$%%$@@@@@#+ ",
" .@@@@@@@%$%$%%%@@#+ ",
" .@@@%$$%%%%%$$$%@#+ ",
" .@@%$%%%$$%%$@@$@#+ ",
" .@@@$%$$%@$%$@@@@#+ ",
" .@@@$%$%@@$%$$$%@#+ ",
" .@@@$%$$%@@$%%%$@#+ ",
" .@@@$%%%$@@@$$$@@#+ ",
" .@@@@$$$@@@@@@@@@#+ ",
" .#################+ ",
" +++++++++++++++++++ ",
"                     ",
"                     ",
"                     "};
