/* XPM */
static char * gnome_less_xpm[] = {
"21 21 6 1",
" 	c None",
".	c #D5D6D5",
"+	c #7B797B",
"@	c #000000",
"#	c #D6D6D6",
"$	c #FFFFFF",
".....................",
"+++++++++++++++++++++",
"+@@@@@@@@@@@@@@@#+$$+",
"+@$$$$$$$$$$$$$$#+@$+",
"+@$$$$$$$$$$$$$$#++$+",
"+@$$@$@$@$$@$$@$#+.$+",
"+@$@$@$$$@$@@$$$#+.$+",
"+@$$@$@$$$$$$$$$#+.$+",
"+@$$@$$@@$$$$$$$#+.$+",
"+@$$$$$$$$$$$$$$#+$$+",
"+@$@@$$@$@@$@$@$#+$$+",
"+@$$@$@@$$@$$$$$#+.$+",
"+@$$$$$$$$$$$$$$#+.$+",
"+@$@$@@@$@$@$$$$#+.$+",
"+@$$$$$$$$$$$$$$#+.$+",
"+@$@@$@@$@$$$$$$#+.$+",
"+@$@$$@$$@$@$$$$#+.$+",
"+@$$@$$$$$$$$$$$#++$+",
"+@$@$@@$@$$$$$$$#+$$+",
"+################+@$+",
"$$$$$$$$$$$$$$$$$++++"};
