/* XPM */
static char * gnome_spell_xpm[] = {
"21 21 9 1",
" 	c None",
".	c #000000",
"+	c #4A6541",
"@	c #415939",
"#	c #4A6941",
"$	c #5A8152",
"%	c #628D5A",
"&	c #52754A",
"*	c #4A6D41",
"                     ",
"                     ",
"                     ",
"  ..  ...   ..       ",
" .  . .  . .  .      ",
" .... ...  .         ",
" .  . .  . .  .      ",
" .  . ...   ..    .. ",
"                 ..  ",
"         ..     ..   ",
"         .+.   .@.   ",
"          .#. .#.    ",
"          .+$.$@.    ",
"           .#%&.     ",
"           .+%@.     ",
"            .#.      ",
"            .*.      ",
"             .       ",
"                     ",
"                     ",
"                     "};
