/* XPM */
static char * gnome_entry_xpm[] = {
"21 21 4 1",
" 	c None",
".	c #000000",
"+	c #FFFFFF",
"@	c #DEDEDE",
"                     ",
"                     ",
"                     ",
"                     ",
"                     ",
"                     ",
"                     ",
".....................",
".+++++++++++++.@@@@@.",
".+++++++++++++..@@@..",
".+++++++++++++...@...",
".....................",
"                     ",
"                     ",
"                     ",
"                     ",
"                     ",
"                     ",
"                     ",
"                     ",
"                     "};
