/* XPM */
static char * gnome_iconentry_xpm[] = {
"21 21 11 1",
" 	c None",
".	c #FFFFFF",
"+	c #000000",
"@	c #D6D6D6",
"#	c #7B7B7B",
"$	c #00FFFF",
"%	c #DEDEDE",
"&	c #FFFF00",
"*	c #1CA81C",
"=	c #00FF00",
"-	c #0000FF",
"                     ",
"                     ",
"                     ",
" ..................+ ",
" .@@@@@@@@@@@@@@@@#+ ",
" .@@@@@@@@@@@@@@@@#+ ",
" .@@++++++++++++@@#+ ",
" .@@+$$$%$$.$$$+@@#+ ",
" .@@+$.$$%$$$&$+@@#+ ",
" .@@+$$$$##$$$$+@@#+ ",
" .@@+$$$++++$$$+@@#+ ",
" .@@+***+@@+***+@@#+ ",
" .@@+===+@-+===+@@#+ ",
" .@@++++++++++++@@#+ ",
" .@@@@@@@@@@@@@@@@#+ ",
" .@@@@@@@@@@@@@@@@#+ ",
" .#################+ ",
" +++++++++++++++++++ ",
"                     ",
"                     ",
"                     "};
