/* XPM */
static char *gnome_dock_band_xpm[] = {
/* columns rows colors chars-per-pixel */
"21 21 22 1",
"  c None",
". c #302f2f",
"X c #00007f",
"o c #403f30",
"O c #405040",
"+ c #505f4f",
"@ c #505f50",
"# c #506050",
"$ c Gray50",
"% c Green",
"& c Cyan",
"* c Red",
"= c #908070",
"- c #90807f",
"; c Yellow",
": c #a09f90",
"> c #bfafaf",
", c #c0bfb0",
"< c #cfc0bf",
"1 c #d0d0d0",
"2 c Gray100",
"3 c Gray0",
/* pixels */
"                     ",
"                     ",
"                     ",
"$$$$$$$$$$$$$$$$$$$$ ",
"$X*;XXXXXXXXXXXXXXX$3",
"$X&%X222X22XXXXX1 1$3",
"$$$$$$$$$$$$$$$$$$$$3",
"$12222222,2,2222222$3",
"$1222222,->-O222222$3",
"$122222,-O,.O222222$3",
"$122222-O,--2222222$3",
"$122222O<--#2222222$3",
"$1222222>-@2<222222$3",
"$1222222<:-<-+22222$3",
"$1222222<:=-.+22222$3",
"$12222222<+oO222222$3",
"$122222222222222222$3",
"$$$$$$$$$$$$$$$$$$$$3",
" 33333333333333333333",
"                     ",
"                     "
};
