/* XPM */
static char * gnome_db_login_xpm[] = {
"21 21 5 1",
" 	c None",
".	c #B5B5B5",
"+	c #FFFFFF",
"@	c #7B7B7B",
"#	c #000000",
"............         ",
".++.++.++.+.         ",
"............         ",
".++.+++++++.         ",
"..+.+..+.++.         ",
".++.+++++++.         ",
"..+.+.+.+.+.         ",
".++.+++++++.         ",
"..+.@@@@@@@@@@@@@@@@ ",
".++.@++++++++++++++@#",
"....@+++++#####++++@#",
"    @++++######++++@#",
"    @++++######++++@#",
"    @++++#######+++@#",
"    @+++++#####++++@#",
"    @++++++####++++@#",
"    @++++++++++++++@#",
"    @@@@@@@@@@@@@@@@#",
"     ################",
"                     ",
"                     "};
