/* XPM */
static char * gtk_dial_xpm[] = {
"21 21 4 1",
" 	c None",
".	c #000000",
"+	c #D6D6D6",
"@	c #9C9C9C",
"                     ",
"          .          ",
"      .   .   .      ",
"                     ",
"   .            +.   ",
"    .          +.+   ",
"             ++.+    ",
" .          +@.+   . ",
"           +@.@+     ",
"          +@.@+      ",
"         +..@+       ",
"..       ...+      ..",
"         +.+         ",
"                     ",
" .                 . ",
"                     ",
"    .           .    ",
"   .             .   ",
"                     ",
"                     ",
"                     "};
