/* XPM */
static char *hruler_xpm[] = {
/* columns rows colors chars-per-pixel */
"21 21 3 1",
"  c Gray0",
". c #b3cece",
"X c None",
/* pixels */
"XXXXXXXXXXXXXXXXXXXXX",
"XXXXXXXXXXXXXXXXXXXXX",
"XXXXXXXXXXXXXXXXXXXXX",
"XXXXXXXXXXXXXXXXXXXXX",
"   XXXXXXXXXXXXXXX   ",
" X XXXXXXXXXXXXXXX XX",
" X XXXXXXXXXXXXXXX   ",
" X XXXXXXXXXXXXXXXXX ",
"   XXXXXXXXXXXXXXX   ",
"XXXXXXXXXXXXXXXXXXXXX",
"X XXXXXXXXXXXXXXXXX X",
"X XXXXXXXXXXXXXXXXX X",
"X XXXXX XXXXX XXXXX X",
"X XXXXX XXXXX XXXXX X",
"X XX XX XX XX XX XX X",
"X XX XX XX XX XX XX X",
"X XX XX XX XX XX XX X",
"X                   X",
"XXXXXXXXXXXXXXXXXXXXX",
"XXXXXXXXXXXXXXXXXXXXX",
"XXXXXXXXXXXXXXXXXXXXX"
};
