/* XPM */
static char *image_xpm[] = {
/* columns rows colors chars-per-pixel */
"21 21 12 1",
"  c Gray0",
". c #007b00",
"X c #7b7b7b",
"o c Blue",
"O c Green",
"+ c Cyan",
"@ c Yellow",
"# c #d6d6d6",
"$ c #b3cece",
"% c Gray87",
"& c Gray100",
"* c None",
/* pixels */
"*********************",
"*********************",
"*********************",
"*                    ",
"* +++++%%%&+++++++++ ",
"* +&&&++%%++&+++XX++ ",
"* +++++++%+++++X@@X+ ",
"* ++&&++++XX+++X@@X+ ",
"* +++++++ XXX&++XX++ ",
"* &+++++XXXXXX++++&+ ",
"* +++++        +++++ ",
"* +++++ ###### +++++ ",
"* +++++ #o##o# +++++ ",
"* ..... ###### ..... ",
"* OOOOO ##oo## OOOOO ",
"* OOOOO ##oo## OOOOO ",
"* OOOOO        OOOOO ",
"* OOOOOOOOOOOOOOOOOO ",
"*                    ",
"*********************",
"*********************"
};
