/* XPM */
static char * layout_xpm[] = {
"21 21 5 1",
" 	c None",
".	c #FFFFFF",
"+	c #D6D6D6",
"@	c #000000",
"#	c #7B7B7B",
".....................",
".+++++++++++++.+++++@",
".+.....+++++++.++@++@",
".+.+++#+++++++.+@@@+@",
".+.+++#+.....+.+++++@",
".+.####+.+++#+.@@@@@@",
".+++++++.+++#+......@",
".+++++++.####+..++++@",
".+++++++++++++..++++@",
".+++.....+++++......@",
".+++.+++#+++++.+++++@",
".+++.+++#+++++.+@@@+@",
".+++.####+++++.++@++@",
".+++++++++++++.+++++@",
"...............@@@@@@",
".++++@...@++++@++++++",
".++@+@.++@+@++@++++++",
".+@@+@.++@+@@+@++++++",
".++@+@.++@+@++@++++++",
".++++@.++@++++@++++++",
".@@@@@@@@@@@@@@++++++"};
