/* XPM */
static char *optionmenu_xpm[] = {
/* columns rows colors chars-per-pixel */
"21 21 6 1",
"  c Gray0",
". c #7b7b7b",
"X c #d6d6d6",
"o c #b3cece",
"O c Gray100",
"+ c None",
/* pixels */
"+++++++++++++++++++++",
"+++++++++++++++++++++",
"+++++++++++++++++++++",
"OOOOOOOOOOOOOOOOOOOO ",
"OXXXXXXXXXXXXXXXXXX. ",
"OXXXXXXXXXXXXXXXXXX. ",
"OXXXXXXXXXXXXXXXXXX. ",
"OXXXXXXXXXXXXXXXXXX. ",
"OXXXXXXXXXXXXOOOOXX. ",
"OXXXXXXXXXXXXOXX XX. ",
"OXXXXXXXXXXXXO   XX. ",
"OXXXXXXXXXXXXXXXXXX. ",
"OXXXXXXXXXXXXXXXXXX. ",
"OXXXXXXXXXXXXXXXXXX. ",
"OXXXXXXXXXXXXXXXXXX. ",
"O................... ",
"                     ",
"+++++++++++++++++++++",
"+++++++++++++++++++++",
"+++++++++++++++++++++",
"+++++++++++++++++++++"
};
