/* XPM */
static char * options_xpm[] = {
"24 24 113 2",
"  	c None",
". 	c #000000",
"+ 	c #ADAD9C",
"@ 	c #959585",
"# 	c #DCDCC5",
"$ 	c #DFDFC8",
"% 	c #242424",
"& 	c #A7A796",
"* 	c #D7D7C1",
"= 	c #D9D9C3",
"- 	c #DCDCC4",
"; 	c #DDDDC7",
"> 	c #E1E1CA",
", 	c #D8BE6A",
"' 	c #A6A694",
") 	c #D6D6BF",
"! 	c #D8D8C2",
"~ 	c #DBDBC4",
"{ 	c #A2A291",
"] 	c #E3E3CB",
"^ 	c #B2B29F",
"/ 	c #8E7D45",
"( 	c #7C7C7C",
"_ 	c #646464",
": 	c #D5D5BD",
"< 	c #D5D5BF",
"[ 	c #D7D7C0",
"} 	c #9E9E8D",
"| 	c #ABAB98",
"1 	c #E1E1C9",
"2 	c #E5E5CD",
"3 	c #E9E9D1",
"4 	c #343434",
"5 	c #E7E7E7",
"6 	c #373736",
"7 	c #B8B8A6",
"8 	c #D3D3BC",
"9 	c #909081",
"0 	c #9F9F8E",
"a 	c #DDDDC5",
"b 	c #E0E0C8",
"c 	c #A2A292",
"d 	c #ECECD4",
"e 	c #EEEED5",
"f 	c #ECECEC",
"g 	c #EDEDED",
"h 	c #3D3D37",
"i 	c #8A8A7A",
"j 	c #E6E6CE",
"k 	c #9A9A8A",
"l 	c #EAEAD2",
"m 	c #EEEEE5",
"n 	c #3C3C3C",
"o 	c #8F8F80",
"p 	c #D0D0B9",
"q 	c #999988",
"r 	c #ECECD3",
"s 	c #EFEFD6",
"t 	c #EEEEE6",
"u 	c #505050",
"v 	c #929282",
"w 	c #D1D1B9",
"x 	c #969686",
"y 	c #E7E7CF",
"z 	c #EBEBD2",
"A 	c #F5F5DC",
"B 	c #D2D2BC",
"C 	c #E9E9D0",
"D 	c #EDEDD4",
"E 	c #E3E3DC",
"F 	c #797973",
"G 	c #D8D8C1",
"H 	c #919182",
"I 	c #949484",
"J 	c #EAEAD1",
"K 	c #D9D9CC",
"L 	c #BFBFB0",
"M 	c #ACACA5",
"N 	c #9F9F93",
"O 	c #98988F",
"P 	c #E4E4CC",
"Q 	c #AD8E30",
"R 	c #756020",
"S 	c #C4C4B0",
"T 	c #9D9D8D",
"U 	c #818174",
"V 	c #DFDFC7",
"W 	c #E2E2CA",
"X 	c #060605",
"Y 	c #9B9B8B",
"Z 	c #9C9C8C",
"` 	c #BEBEAE",
" .	c #8B8B7D",
"..	c #7E7E71",
"+.	c #C0C0AC",
"@.	c #C2C2AE",
"#.	c #C3C3AF",
"$.	c #DADAC3",
"%.	c #4E4E4E",
"&.	c #E8E8D0",
"*.	c #A0A090",
"=.	c #F2F2D9",
"-.	c #F3F3DA",
";.	c #F4F4DB",
">.	c #828274",
",.	c #EBEBD3",
"'.	c #F1F1D8",
").	c #F0F0D7",
"!.	c #A5A594",
"~.	c #BBBBA8",
"{.	c #CDCDB8",
"].	c #4D4D45",
"^.	c #A6A696",
"                                                ",
"                                                ",
"                          .                     ",
"                      . . + .                   ",
"                  . . @ # $ %             .     ",
"              . . & * = - ; > .         . , .   ",
"          . . ' ) * * ! ~ { ] ^ .     . , / .   ",
"        . ( _ ) : < [ } | 1 2 3 4   . , / .     ",
"        . 5 6 7 8 9 0 a b 2 c d e . , / .       ",
"        . f g h i < ~ b j k l e . , / .         ",
"        . m m n o p b q q r s . , / .           ",
"        . t u v w - x y z e . , / . A .         ",
"        . . x B ~ x ] C D . , / . A A E .       ",
"        . F G H I > y J . , / . A K L M N .     ",
"        . O ~ # $ P y Q R . . S T T T T U .     ",
"          . V b W 2 3 X . Y Z T T T T . .       ",
"          . ` 2 2 T  ...+.@.#.S A $..           ",
"            %.&.*.l D s =.-.;.=.>..             ",
"            . ,.d D s '.=.=.$..                 ",
"              . s ).'.=.3 !..                   ",
"              . ~.=.-.{.]..                     ",
"                . -.^..                         ",
"                  . .                           ",
"                                                "};
