/* XPM */
static char *placeholder_xpm[] = {
/* columns rows colors chars-per-pixel */
"8 8 2 1",
"  c #bbbbbb",
". c #d6d6d6",
/* pixels */
" .  .   ",
".    .  ",
"      ..",
"      ..",
".    .  ",
" .  .   ",
"  ..    ",
"  ..    "
};
