/* XPM */
static char *popup_xpm[] = {
/* columns rows colors chars-per-pixel */
"21 21 5 1",
"  c Gray0",
". c #7b7b7b",
"X c #b3cece",
"o c Gray100",
"O c None",
/* pixels */
"OOOOOOOOOOOOOOOOOOOOO",
"OOOOOOOOOOOOOOOOOOOOO",
"OOOOOOOOOOOOOOOOOOOOO",
"OOOOOOOOOOOOOOOOOOOOO",
"OOOOOOOOOOOOOOOOOOOOO",
"................OOOOO",
".oooooooooooooo. OOOO",
".oooooooooooooo. OOOO",
".oooooooooooooo. OOOO",
".oooooooooooooo. OOOO",
".oooooooooooooo. OOOO",
".oooooooooooooo. OOOO",
".oooooooooooooo. O.OO",
".oooooooooooooo. O.OO",
"................ O.OO",
"O                O.O.",
"OOOOOOOOOOOOOOOOOO.O.",
"OOOOOO.............O.",
"OOOOOOOOOOOOOOOOOOOO.",
"OOOOOOOOOO...........",
"OOOOOOOOOOOOOOOOOOOOO"
};
