/* XPM */
static char * radiomenuitem_xpm[] = {
"21 21 4 1",
" 	c None",
".	c #7B7B7B",
"+	c #000000",
"@	c #FFFFFF",
"                     ",
"                     ",
"                     ",
"                     ",
"       .             ",
"      ...            ",
"     ..+..           ",
"    ..+ +..          ",
"   ..+   +..         ",
"  ..+     +..        ",
"   @@     @@         ",
"    @@   @@          ",
"     @@ @@       +   ",
"      @@@      ++    ",
"       @     ++++    ",
"           +++++     ",
"            ++++     ",
"            +++      ",
"           +  +      ",
"          +          ",
"                     "};
