/* XPM */
static char * source_xpm[] = {
"24 24 80 1",
" 	c None",
".	c #000000",
"+	c #B2A97E",
"@	c #B6AD81",
"#	c #7A7356",
"$	c #B0A77C",
"%	c #B5AC80",
"&	c #BAB184",
"*	c #BBB284",
"=	c #B6AD80",
"-	c #ADA57B",
";	c #B7AE81",
">	c #BDB486",
",	c #837C5C",
"'	c #B4AC80",
")	c #7C7557",
"!	c #C0B687",
"~	c #BEB586",
"{	c #B1A87D",
"]	c #B9B082",
"^	c #C0B788",
"/	c #AFA67B",
"(	c #AFA77C",
"_	c #BAB183",
":	c #BBB285",
"<	c #BCB385",
"[	c #C4BB8B",
"}	c #C6BC8C",
"|	c #C7BD8D",
"1	c #C7BE8D",
"2	c #C8BF8E",
"3	c #C8BE8D",
"4	c #C5BC8B",
"5	c #C1B788",
"6	c #B9B083",
"7	c #CDC391",
"8	c #D0C693",
"9	c #D1C794",
"0	c #D3C995",
"a	c #CDC491",
"b	c #C2B889",
"c	c #CAC18F",
"d	c #D5CB97",
"e	c #D6CC97",
"f	c #D6CC98",
"g	c #D7CD98",
"h	c #CEC491",
"i	c #C2B98A",
"j	c #CBC18F",
"k	c #C1B889",
"l	c #8A8261",
"m	c #D4CA96",
"n	c #C0B787",
"o	c #80785A",
"p	c #B9B183",
"q	c #827C5B",
"r	c #CFC592",
"s	c #C7BD8C",
"t	c #C3BA8A",
"u	c #CAC08F",
"v	c #D0C793",
"w	c #7C7657",
"x	c #D2C894",
"y	c #D2C995",
"z	c #CCC290",
"A	c #C4BA8A",
"B	c #D1C793",
"C	c #CEC592",
"D	c #C5BC8C",
"E	c #CFC693",
"F	c #C1B888",
"G	c #BEB486",
"H	c #C8BF8D",
"I	c #C9C08F",
"J	c #C9BF8E",
"K	c #C5BB8B",
"L	c #B2A97D",
"M	c #C2B989",
"N	c #BFB687",
"O	c #B3AA7E",
"                        ",
"                        ",
"                        ",
"      ....              ",
"     .+.@#.             ",
"    .$%&*=-.            ",
"    ..;>,$..            ",
"    .-')!~@.  ...       ",
"    ..{]~^.. ./({. .    ",
"     .#._#._..&:<..@.   ",
"      . ..>[}|1232456.  ",
"          .2789009a2.   ",
"         .bc9defge0h..  ",
"        .]ij9ekl1gm83n. ",
"        .*ic9dopqgmrs~. ",
"        .<tu8mvwuxyzA*. ",
"         ..3ax0rBxC3..  ",
"          .DuhE8rz3F.   ",
"         .Gt}HIJ1K^*L.  ",
"          .~..MbN..O.   ",
"           . .*_;. .    ",
"              ...       ",
"                        ",
"                        "};
