/* XPM */
static char *tree_xpm[] = {
/* columns rows colors chars-per-pixel */
"21 21 7 1",
"  c Gray0",
". c #7b7b7b",
"X c Green",
"o c Cyan",
"O c Yellow",
"+ c #b3cece",
"@ c None",
/* pixels */
"@   @@@@@@@@@@@@@@@@@",
"@ o @......@@@@@@@@@@",
"@   @@@@@@@@@@@@@@@@@",
"@@ @@@@@@@@@@@@@@@@@@",
"@@ @@   @@@@@@@@@@@@@",
"@@    O @......@@@@@@",
"@@ @@   @@@@@@@@@@@@@",
"@@ @@@ @@@@@@@@@@@@@@",
"@@ @@@ @@   @@@@@@@@@",
"@@ @@@    X @......@@",
"@@ @@@ @@   @@@@@@@@@",
"@@ @@@ @@@@@@@@@@@@@@",
"@@ @@@ @@   @@@@@@@@@",
"@@ @@@    X @......@@",
"@@ @@@@@@   @@@@@@@@@",
"@@ @@@@@@@@@@@@@@@@@@",
"@@ @@   @@@@@@@@@@@@@",
"@@    O @......@@@@@@",
"@@@@@   @@@@@@@@@@@@@",
"@@@@@@ @@@@@@@@@@@@@@",
"@@@@@@ @@@@@@@@@@@@@@"
};
