/* XPM */
static char *treeitem_xpm[] = {
/* columns rows colors chars-per-pixel */
"21 21 8 1",
"  c Gray0",
". c #7b7b7b",
"X c Red",
"o c Yellow",
"O c #b3cece",
"+ c Gray87",
"@ c Gray100",
"# c None",
/* pixels */
"#####################",
"#####################",
"#####################",
"###...###############",
"## .@ #+++++#########",
"###   ###############",
"#### ################",
"#### #...############",
"####  .o #XXXXXXX####",
"#### #   #XXXXXXX####",
"#### ################",
"#### #...############",
"####  .@ #+++++######",
"#### #   ############",
"#### ## #############",
"#### ## #...#########",
"#### ##  .o #+++++###",
"#### ####   #########",
"#####################",
"#####################",
"#####################"
};
