/* XPM */
static char *unknown_xpm[] = {
/* columns rows colors chars-per-pixel */
"21 21 6 1",
"  c Gray0",
". c #7b7b7b",
"X c #d6d6d6",
"o c #b3cece",
"O c Gray100",
"+ c None",
/* pixels */
"+++++++++++++++++++++",
"+++++++++++++++++++++",
"++OOOOOOOOOOOOOOOO ++",
"++OXXXXXXXXXXXXXX. ++",
"++OXXXXX   XXXXXX. ++",
"++OXXXX     XXXXX. ++",
"++OXXX   X   XXXX. ++",
"++OXXX  XXX  XXXX. ++",
"++OXXXXXXX   XXXX. ++",
"++OXXXXXX   XXXXX. ++",
"++OXXXXXX  XXXXXX. ++",
"++OXXXXXX  XXXXXX. ++",
"++OXXXXXX  XXXXXX. ++",
"++OXXXXXXXXXXXXXX. ++",
"++OXXXXXX  XXXXXX. ++",
"++OXXXXXX  XXXXXX. ++",
"++OXXXXXXXXXXXXXX. ++",
"++O............... ++",
"++                 ++",
"+++++++++++++++++++++",
"+++++++++++++++++++++"
};
