/* XPM */
static char *vruler_xpm[] = {
/* columns rows colors chars-per-pixel */
"21 21 3 1",
"  c Gray0",
". c #b3cece",
"X c None",
/* pixels */
"XXXX   XXXXXXXXXXXXXX",
"XXXX X XX        XXXX",
"XXXX X XXXXXXXXX XXXX",
"XXXX   XXXXXXXXX XXXX",
"XXXXXXXXXXXXX    XXXX",
"XXXXXXXXXXXXXXXX XXXX",
"XXXXXXXXXXXXXXXX XXXX",
"XXXXXXXXXXX      XXXX",
"XXXXXXXXXXXXXXXX XXXX",
"XXXXXXXXXXXXXXXX XXXX",
"XXXXXXXXXXXXX    XXXX",
"XXXXXXXXXXXXXXXX XXXX",
"XXXXXXXXXXXXXXXX XXXX",
"XXXXXXXXXXX      XXXX",
"XXXXXXXXXXXXXXXX XXXX",
"XXXXXXXXXXXXXXXX XXXX",
"XXXX   XXXXXX    XXXX",
"XXXX XXXXXXXXXXX XXXX",
"XXXX   XXXXXXXXX XXXX",
"XXXXXX XX        XXXX",
"XXXX   XXXXXXXXXXXXXX"
};
