<?xml version="1.0" encoding="UTF-8"?>
<!-- Generated by Pixelmator Pro 3.7 -->
<svg width="496" height="496" viewBox="0 0 496 496" xmlns="http://www.w3.org/2000/svg">
    <radialGradient id="radialGradient1" cx="248" cy="120" r="512" fx="248" fy="120" gradientUnits="userSpaceOnUse">
        <stop offset="1e-05" stop-color="#606060" stop-opacity="1"/>
        <stop offset="1" stop-color="#202020" stop-opacity="1"/>
    </radialGradient>
    <path id="path2988" fill="url(#radialGradient1)" stroke="none" d="M 248 0 C 236 0 212.065994 10.903015 185.593994 29.531006 C 159.121994 48.160004 129.386993 73.925995 101.655998 101.656006 C 73.926003 129.386993 48.16 159.122009 29.530998 185.593994 C 10.903 212.065979 0 236 0 248 C 0 260 10.903 283.93399 29.530998 310.406006 C 48.16 336.877991 73.926003 366.613007 101.655998 394.343994 C 129.386993 422.074005 159.121994 447.839996 185.593994 466.468994 C 212.065994 485.096985 236 496 248 496 C 260 496 283.93399 485.096985 310.406006 466.468994 C 336.877991 447.839996 366.613007 422.074005 394.343994 394.343994 C 422.074005 366.613007 447.839996 336.877991 466.468994 310.406006 C 485.096985 283.93399 496 260 496 248 C 496 236 485.096985 212.065979 466.468994 185.593994 C 447.839996 159.122009 422.074005 129.386993 394.343994 101.656006 C 366.613007 73.925995 336.877991 48.160004 310.406006 29.531006 C 283.93399 10.903015 260 0 248 0 Z"/>
</svg>
