<svg enable-background="new" height="512" width="512" xmlns="http://www.w3.org/2000/svg" xmlns:xlink="http://www.w3.org/1999/xlink">
  <radialGradient id="a" cx="256" cy="-.001" gradientUnits="userSpaceOnUse" r="384">
    <stop offset="0" stop-color="#fff"/>
    <stop offset="1" stop-color="#fff" stop-opacity="0"/>
  </radialGradient>
  <filter id="b" color-interpolation-filters="sRGB" height="1.263" width="1.35" x="-.175" y="-.131">
    <feGaussianBlur stdDeviation="17.5"/>
  </filter>
  <filter id="c">
    <feBlend in2="BackgroundImage" mode="screen"/>
  </filter>
  <filter id="d">
    <feBlend in2="BackgroundImage" mode="lighten"/>
  </filter>
  <radialGradient id="e" cx="256" cy="128" gradientTransform="matrix(2 0 0 1.5 -256 -64)" gradientUnits="userSpaceOnUse" r="256">
    <stop offset="0" stop-color="#606060"/>
    <stop offset="1" stop-color="#202020"/>
  </radialGradient>
  <radialGradient id="f" cx="256" cy="128" gradientTransform="matrix(2 0 0 1.5 -256 -64)" gradientUnits="userSpaceOnUse" r="256">
    <stop offset="0" stop-color="#404040"/>
    <stop offset="1"/>
  </radialGradient>
  <linearGradient id="g" gradientUnits="userSpaceOnUse" x1="256" x2="256" y1="0" y2="512">
    <stop offset="0" stop-color="#fff" stop-opacity=".5"/>
    <stop offset="1" stop-color="#fff" stop-opacity=".251"/>
  </linearGradient>
  <g filter="url(#d)">
    <path d="m256 8c-12 0-35.934 10.903-62.406 29.531-26.472 18.629-56.207 44.395-83.938 72.125-27.73 27.731-53.496 57.466-72.125 83.938-18.628 26.472-29.531 50.406-29.531 62.406s10.903 35.934 29.531 62.406c18.629 26.472 44.395 56.207 72.125 83.938 27.731 27.73 57.466 53.496 83.938 72.125 26.472 18.628 50.406 29.531 62.406 29.531s35.934-10.903 62.406-29.531c26.472-18.629 56.207-44.395 83.938-72.125 27.73-27.731 53.496-57.466 72.125-83.938 18.628-26.472 29.531-50.406 29.531-62.406s-10.903-35.934-29.531-62.406c-18.629-26.472-44.395-56.207-72.125-83.938-27.731-27.73-57.466-53.496-83.938-72.125-26.472-18.628-50.406-29.531-62.406-29.531z" fill="url(#e)"/>
    <path d="m256 8c-12 0-35.934 10.903-62.406 29.531s-56.207 44.394-83.938 72.125-53.497 57.466-72.125 83.938-29.531 50.406-29.531 62.406 10.903 35.934 29.531 62.406 44.394 56.207 72.125 83.938 57.466 53.497 83.938 72.125 50.406 29.531 62.406 29.531 35.934-10.903 62.406-29.531 56.207-44.394 83.938-72.125 53.497-57.466 72.125-83.938 29.531-50.406 29.531-62.406-10.903-35.934-29.531-62.406-44.395-56.207-72.125-83.938c-27.731-27.731-57.466-53.497-83.938-72.125s-50.406-29.531-62.406-29.531zm0 15c4.5 0 28.269 8.881 53.75 26.813 25.481 17.931 54.774 43.212 82 70.438s52.506 56.519 70.438 82c17.931 25.48 26.812 49.249 26.812 53.749s-8.881 28.269-26.813 53.75c-17.931 25.481-43.212 54.774-70.438 82s-56.519 52.506-82 70.438c-25.48 17.931-49.249 26.812-53.749 26.812s-28.269-8.881-53.75-26.813c-25.481-17.931-54.774-43.212-82-70.438-27.226-27.225-52.506-56.518-70.437-81.999-17.932-25.481-26.813-49.25-26.813-53.75s8.881-28.269 26.813-53.75c17.931-25.481 43.212-54.774 70.438-82s56.519-52.506 82-70.438c25.48-17.931 49.249-26.812 53.749-26.812z" fill="url(#g)"/>
    <path d="m256 0c-64 0-256 192-256 256s192 256 256 256 256-192 256-256-192-256-256-256zm0 16c8 0 31.838 9.837 57.781 28.094 25.944 18.257 55.445 43.757 82.906 71.219 27.461 27.461 52.962 56.963 71.219 82.906s28.094 49.781 28.094 57.781-9.837 31.838-28.094 57.781c-18.257 25.944-43.757 55.445-71.219 82.906-27.461 27.461-56.963 52.962-82.906 71.219s-49.781 28.094-57.781 28.094-31.838-9.837-57.781-28.094c-25.944-18.257-55.445-43.758-82.906-71.219-27.462-27.461-52.963-56.962-71.219-82.906-18.257-25.943-28.094-49.781-28.094-57.781s9.837-31.838 28.094-57.781c18.257-25.944 43.758-55.445 71.219-82.906 27.461-27.462 56.962-52.963 82.906-71.219 25.943-18.257 49.781-28.094 57.781-28.094z" fill="url(#f)"/>
    <path d="m256 0c-64 0-256 192-256 256 64 0 128-128 256-128s192 128 256 128c0-64-192-256-256-256z" fill="url(#a)" opacity=".25"/>
  </g>
  <g fill-rule="evenodd" filter="url(#c)">
    <path d="m184 96v40 120l90-60 90 60-180 120v40l240-160-120-80z" fill="#80ff00" filter="url(#b)"/>
  </g>
</svg>
